<?xml version="1.0" encoding="UTF-8"?><svg id="Ebene_1" xmlns="http://www.w3.org/2000/svg" viewBox="0 0 96.91 96.91"><defs><style>.cls-1{opacity:.15;}</style></defs><path class="cls-1" d="M48.97-.52C22.21-.52.52,21.18.52,47.94s21.69,48.45,48.45,48.45,48.45-21.69,48.45-48.45S75.73-.52,48.97-.52ZM61.77,76.2c.47,3.38-1.93,8.7-5.47,10.38-5.5,2.54-11.01,2.54-16.51,0-3.54-1.68-5.94-7.01-5.47-10.38,2.26-18.47,2.26-36.95,0-55.42-.47-3.38,1.93-8.7,5.47-10.38,5.5-2.54,11.01-2.54,16.51,0,3.54,1.68,5.94,7.01,5.47,10.38-2.26,18.47-2.26,36.95,0,55.42Z"/><path d="M49.05,57.89c-.78,1.2-1,1.05-1.78-.15-1.2-1.84-1.62-1.77-1.62-3.96s1.92-2.19,1.92-4.39-2.05-2.2-2.05-4.39,1.69-2.2,1.69-4.4-.99-2.03.21-3.87c.78-1.2,1.6-1.94,2.38-.75,1.2,1.84-.38,2.41-.38,4.61s.82,2.19.82,4.39-1.04,2.2-1.04,4.39.54,2.15.79,4.33.25,2.34-.94,4.18Z"/></svg>