<?xml version="1.0" encoding="UTF-8"?><svg id="Ebene_1" xmlns="http://www.w3.org/2000/svg" viewBox="0 0 96.91 96.91"><defs><style>.cls-1{fill:#fff;}.cls-2{opacity:.7;}.cls-3{opacity:.2;}</style></defs><circle class="cls-3" cx="48.97" cy="47.94" r="48.45"/><path class="cls-1" d="M54.59,78.7c-4.36,2.02-8.73,2.02-13.09,0-2.81-1.33-4.71-5.56-4.34-8.23,1.79-14.65,1.79-29.3,0-43.95-.37-2.68,1.53-6.9,4.34-8.23,4.36-2.02,8.73-2.02,13.09,0,2.81,1.33,4.71,5.56,4.34,8.23-1.79,14.65-1.79,29.3,0,43.95.37,2.68-1.53,6.9-4.34,8.23Z"/><g class="cls-2"><path d="M54.93,75.13c-1.68,1.62-2.01-.38-4.34-.38s-2.33,1.59-4.66,1.59-2.38.11-4.05-1.5-1.6-1.61-1.6-3.85,1.54-2.24,1.54-4.48.33-2.24.33-4.48-1.24-2.24-1.24-4.48.41-2.24.41-4.48-.75-2.24-.75-4.48.95-2.24.95-4.48-.73-2.24-.73-4.48.17-2.24.17-4.48.43-2.24.43-4.49.39-2.24.39-4.49-2.37-3.18-.75-4.74,2.57-.59,4.9-.59,2.33.86,4.66.86,2.95-1.6,4.63.01-.53,2.21-.53,4.44.99,2.24.99,4.48-.92,2.24-.92,4.48,1.38,2.24,1.38,4.48-1.42,2.24-1.42,4.48.2,2.24.2,4.48-.59,2.24-.59,4.48.08,2.24.08,4.48,1.54,2.24,1.54,4.48-.84,2.24-.84,4.49-1.11,2.43-.7,4.64,2.14,2.45.52,4.01Z"/></g></svg>