<?xml version="1.0" encoding="UTF-8"?><svg id="Ebene_1" xmlns="http://www.w3.org/2000/svg" viewBox="0 0 96.91 96.91"><defs><style>.cls-1{opacity:.15;}</style></defs><path class="cls-1" d="M48.97-.52C22.21-.52.52,21.18.52,47.94s21.69,48.45,48.45,48.45,48.45-21.69,48.45-48.45S75.73-.52,48.97-.52ZM61.77,76.2c.47,3.38-1.93,8.7-5.47,10.38-5.5,2.54-11.01,2.54-16.51,0-3.54-1.68-5.94-7.01-5.47-10.38,2.26-18.47,2.26-36.95,0-55.42-.47-3.38,1.93-8.7,5.47-10.38,5.5-2.54,11.01-2.54,16.51,0,3.54,1.68,5.94,7.01,5.47,10.38-2.26,18.47-2.26,36.95,0,55.42Z"/><path d="M52.34,74.48c-3.82,2.81-4.51,2.47-8.34-.34-2.81-2.06-2.18-2.53-2.18-6.01s2.93-3.49,2.93-6.97-3.13-3.49-3.13-6.97,2.58-3.49,2.58-6.98.56-3.49.56-6.97-2.08-3.49-2.08-6.98.68-3.49.68-6.98-3.59-5.86-.78-7.93c3.82-2.81,6.12-1.53,9.95,1.28,2.81,2.06,1.05,3.16,1.05,6.64s-.29,3.49-.29,6.97-.72,3.49-.72,6.97-.65,3.49-.65,6.98,1.44,3.49,1.44,6.97.82,3.49.82,6.98-2.15,3.57-1.44,6.99,2.39,4.29-.42,6.36Z"/></svg>