<?xml version="1.0" encoding="UTF-8"?><svg id="Ebene_1" xmlns="http://www.w3.org/2000/svg" viewBox="0 0 96.91 96.91"><defs><style>.cls-1{fill:#fff;}.cls-2{opacity:.7;}.cls-3{opacity:.2;}</style></defs><circle class="cls-3" cx="48.97" cy="47.94" r="48.45"/><path class="cls-1" d="M54.59,78.7c-4.36,2.02-8.73,2.02-13.09,0-2.81-1.33-4.71-5.56-4.34-8.23,1.79-14.65,1.79-29.3,0-43.95-.37-2.68,1.53-6.9,4.34-8.23,4.36-2.02,8.73-2.02,13.09,0,2.81,1.33,4.71,5.56,4.34,8.23-1.79,14.65-1.79,29.3,0,43.95.37,2.68-1.53,6.9-4.34,8.23Z"/><g class="cls-2"><path d="M51.45,69.1c-3.03,2.23-3.58,1.96-6.61-.27-2.23-1.64-1.72-2-1.72-4.77s2.32-2.77,2.32-5.53-2.48-2.77-2.48-5.53,2.05-2.77,2.05-5.53.44-2.76.44-5.53-1.65-2.77-1.65-5.53.54-2.77.54-5.54-2.85-4.65-.62-6.29c3.03-2.23,4.86-1.21,7.89,1.02,2.23,1.64.83,2.5.83,5.27s-.23,2.77-.23,5.53-.57,2.77-.57,5.53-.51,2.77-.51,5.53,1.14,2.76,1.14,5.53.65,2.77.65,5.53-1.71,2.83-1.14,5.54,1.89,3.4-.34,5.04Z"/></g></svg>