<?xml version="1.0" encoding="UTF-8"?><svg id="Ebene_1" xmlns="http://www.w3.org/2000/svg" viewBox="0 0 96.91 96.91"><defs><style>.cls-1{fill:#fff;}.cls-2{opacity:.7;}.cls-3{opacity:.2;}</style></defs><circle class="cls-3" cx="48.97" cy="47.94" r="48.45"/><path class="cls-1" d="M54.59,78.7c-4.36,2.02-8.73,2.02-13.09,0-2.81-1.33-4.71-5.56-4.34-8.23,1.79-14.65,1.79-29.3,0-43.95-.37-2.68,1.53-6.9,4.34-8.23,4.36-2.02,8.73-2.02,13.09,0,2.81,1.33,4.71,5.56,4.34,8.23-1.79,14.65-1.79,29.3,0,43.95.37,2.68-1.53,6.9-4.34,8.23Z"/><g class="cls-2"><path d="M48.85,55.95c-.62.95-.8.83-1.42-.12-.95-1.46-1.28-1.4-1.28-3.14s1.52-1.74,1.52-3.48-1.62-1.74-1.62-3.48,1.34-1.74,1.34-3.49-.78-1.61.17-3.07c.62-.95,1.27-1.54,1.89-.59.95,1.46-.3,1.91-.3,3.65s.65,1.74.65,3.48-.83,1.74-.83,3.48.43,1.71.63,3.44.2,1.86-.75,3.32Z"/></g></svg>