<?xml version="1.0" encoding="UTF-8"?><svg id="Ebene_1" xmlns="http://www.w3.org/2000/svg" viewBox="0 0 96.91 96.91"><defs><style>.cls-1{fill:#fff;}.cls-2{opacity:.2;}</style></defs><circle class="cls-2" cx="48.97" cy="47.94" r="48.45"/><path class="cls-1" d="M56.3,86.58c-5.5,2.54-11.01,2.54-16.51,0-3.54-1.68-5.94-7.01-5.47-10.38,2.26-18.47,2.26-36.95,0-55.42-.47-3.38,1.93-8.7,5.47-10.38,5.5-2.54,11.01-2.54,16.51,0,3.54,1.68,5.94,7.01,5.47,10.38-2.26,18.47-2.26,36.95,0,55.42.47,3.38-1.93,8.7-5.47,10.38Z"/><path d="M56.73,82.08c-2.11,2.04-2.53-.48-5.47-.48s-2.94,2-5.87,2-3,.14-5.11-1.9-2.02-2.03-2.02-4.86,1.95-2.82,1.95-5.65.42-2.82.42-5.65-1.57-2.82-1.57-5.65.52-2.83.52-5.65-.95-2.83-.95-5.65,1.2-2.83,1.2-5.65-.92-2.83-.92-5.65.22-2.82.22-5.65.54-2.83.54-5.65.49-2.83.49-5.66-2.99-4.01-.95-5.98,3.24-.74,6.18-.74,2.94,1.08,5.87,1.08,3.72-2.02,5.84.02-.67,2.79-.67,5.61,1.25,2.82,1.25,5.65-1.16,2.82-1.16,5.65,1.74,2.82,1.74,5.65-1.79,2.83-1.79,5.65.25,2.83.25,5.65-.74,2.83-.74,5.65.1,2.83.1,5.65,1.94,2.82,1.94,5.65-1.06,2.83-1.06,5.65-1.4,3.07-.89,5.85,2.69,3.09.66,5.05Z"/></svg>