<?xml version="1.0" encoding="UTF-8"?><svg id="Ebene_1" xmlns="http://www.w3.org/2000/svg" viewBox="0 0 96.91 96.91"><defs><style>.cls-1{fill:#fff;}.cls-2{opacity:.7;}.cls-3{opacity:.48;}.cls-4{opacity:.15;}.cls-5{opacity:.12;}</style></defs><circle class="cls-4" cx="48.45" cy="48.45" r="48.45"/><path class="cls-2" d="M64.63,19.46h-30.05c-3.45,0-6.27,2.69-6.49,6.08h-.74c-1.28,0-2.31,1.03-2.31,2.31s1.03,2.31,2.31,2.31h.72v3.64h-.72c-1.28,0-2.31,1.03-2.31,2.31s1.03,2.31,2.31,2.31h.72v3.64h-.72c-1.28,0-2.31,1.03-2.31,2.31s1.03,2.31,2.31,2.31h.72v3.64h-.72c-1.28,0-2.31,1.03-2.31,2.31s1.03,2.31,2.31,2.31h.72v3.64h-.72c-1.28,0-2.31,1.03-2.31,2.31s1.03,2.31,2.31,2.31h.72v3.64h-.72c-1.28,0-2.31,1.03-2.31,2.31s1.03,2.31,2.31,2.31h.74c.22,3.4,3.04,6.08,6.49,6.08h30.05c3.6,0,6.51-2.92,6.51-6.51V25.97c0-3.6-2.92-6.51-6.51-6.51Z"/><path class="cls-3" d="M79.5,67.52h0c-2.42,0-4.38-1.96-4.38-4.38v-26.42c0-.72.17-1.44.48-2.09l2.81-5.74c.54-.73,1.63-.73,2.17,0l2.81,5.74c.32.65.48,1.37.48,2.09v26.42c0,2.42-1.96,4.38-4.38,4.38Z"/><path class="cls-5" d="M79.5,37.05c1.55,0,3.02-.37,4.32-1.01-.07-.49-.21-.96-.43-1.41l-2.81-5.74c-.54-.73-1.63-.73-2.17,0l-2.81,5.74c-.22.45-.36.92-.43,1.41,1.31.64,2.77,1.01,4.32,1.01Z"/><path class="cls-1" d="M79.5,30.06c.53,0,1.03-.16,1.45-.41l-.37-.75c-.54-.73-1.63-.73-2.17,0l-.37.75c.43.26.92.41,1.45.41Z"/></svg>