<?xml version="1.0" encoding="UTF-8"?><svg id="Ebene_1" xmlns="http://www.w3.org/2000/svg" viewBox="0 0 96.91 96.91"><defs><style>.cls-1{opacity:.7;}.cls-2{opacity:.2;}</style></defs><circle class="cls-2" cx="48.45" cy="48.45" r="48.45"/><g class="cls-1"><path d="M32.31,57.05c-3.29,0-6.57-.45-9.82-1.35-.8-.22-1.27-1.05-1.05-1.84.22-.8,1.05-1.27,1.84-1.05,5.98,1.65,12.06,1.65,18.08,0,.8-.22,1.62.25,1.84,1.05.22.8-.25,1.62-1.05,1.84-3.27.9-6.57,1.34-9.85,1.34Z"/></g><g class="cls-1"><path d="M64.56,57.05c-3.29,0-6.57-.45-9.82-1.35-.8-.22-1.27-1.05-1.05-1.84.22-.8,1.05-1.27,1.84-1.05,5.98,1.65,12.06,1.65,18.08,0,.8-.22,1.62.25,1.84,1.05.22.8-.25,1.62-1.05,1.84-3.27.9-6.57,1.34-9.85,1.34Z"/></g></svg>