<?xml version="1.0" encoding="UTF-8"?><svg id="Ebene_1" xmlns="http://www.w3.org/2000/svg" viewBox="0 0 96.91 96.91"><defs><style>.cls-1{opacity:.15;}</style></defs><path d="M48.2,15.62h0c6.26,0,11.35,5.09,11.35,11.35v39.34c0,4.52-3.67,8.19-8.19,8.19h-6.32c-4.52,0-8.19-3.67-8.19-8.19V26.97c0-6.26,5.09-11.35,11.35-11.35Z"/><path class="cls-1" d="M48.97-.52C22.21-.52.52,21.18.52,47.94s21.69,48.45,48.45,48.45c3.64,0,7.19-.42,10.6-1.18-.14-.61-.23-1.07-.31-1.45-.23-1.17-.3-1.52-1.35-3.68-.9-1.84-2.67-3.26-4.54-4.78-3.11-2.51-6.64-5.36-6.64-10.75h2.38c0,4.25,2.8,6.51,5.76,8.91,1.99,1.61,4.05,3.27,5.18,5.58,1.14,2.33,1.28,2.88,1.55,4.27.07.35.15.78.28,1.34,20.49-5.65,35.55-24.41,35.55-46.7C97.42,21.18,75.73-.52,48.97-.52Z"/></svg>