<?xml version="1.0" encoding="UTF-8"?><svg id="Ebene_1" xmlns="http://www.w3.org/2000/svg" viewBox="0 0 96.91 96.91"><defs><style>.cls-1{fill:#fff;}.cls-2{opacity:.7;}.cls-3{opacity:.2;}</style></defs><circle class="cls-3" cx="48.97" cy="47.94" r="48.45"/><path class="cls-1" d="M48.39,21.94h0c5.27,0,9.55,4.28,9.55,9.55v33.12c0,3.8-3.09,6.89-6.89,6.89h-5.32c-3.8,0-6.89-3.09-6.89-6.89V31.5c0-5.27,4.28-9.55,9.55-9.55Z"/><path class="cls-1" d="M58.05,89.3c-.17-.69-.26-1.18-.34-1.57-.19-.98-.25-1.28-1.14-3.1-.75-1.54-2.24-2.75-3.82-4.02-2.62-2.12-5.59-4.52-5.59-9.05h2c0,3.58,2.35,5.48,4.85,7.5,1.68,1.35,3.41,2.76,4.36,4.7.96,1.96,1.08,2.43,1.31,3.6.07.37.16.83.32,1.49l-1.95.46Z"/><path class="cls-2" d="M57.02,46.28c.29-.12.6-.26.93-.41v-14.37c0-5.28-4.28-9.55-9.55-9.55s-9.55,4.28-9.55,9.55v17.66c6.11-2.4,13.88-1.16,18.18-2.88Z"/></svg>