<?xml version="1.0" encoding="UTF-8"?><svg id="Ebene_1" xmlns="http://www.w3.org/2000/svg" viewBox="0 0 180 180"><defs><style>.cls-1{fill:#ff5273;}.cls-2{fill:#fcd6dc;}</style></defs><rect class="cls-2" x="-12.03" y="-12.03" width="204.06" height="204.06"/><circle class="cls-1" cx="90" cy="90" r="57.95"/><path class="cls-2" d="M77.56,69.52h15.85c7.26,0,11.74,3.74,11.74,9.66,0,4.06-2.35,7.05-6.35,8.17v.27c4.59.85,7.31,4.27,7.31,9.13,0,6.35-4.59,10.41-11.74,10.41h-16.81v-37.63ZM97.31,80.19c0-3.04-2.03-4.86-5.12-4.86h-7.04v9.71h7.04c3.15,0,5.12-1.92,5.12-4.86ZM98.33,95.99c0-3.36-2.03-5.39-5.34-5.39h-7.85v10.73h7.85c3.31,0,5.34-2.03,5.34-5.34Z"/></svg>